<!--?xml version="1.0" standalone="no"?-->
              <svg id="sw-js-blob-svg" viewBox="0 0 100 100" xmlns="http://www.w3.org/2000/svg" version="1.1">
                    <defs> 
                        <linearGradient id="sw-gradient" x1="0" x2="1" y1="1" y2="0">
                            <stop id="stop1" stop-color="rgba(241.852, 241.852, 241.852, 1)" offset="0%"></stop>
                            <stop id="stop2" stop-color="rgba(40.771, 163.305, 239.888, 0.33)" offset="100%"></stop>
                        </linearGradient>
                    </defs>
                <path fill="url(#sw-gradient)" d="M20,-32.7C25.2,-31.7,28,-24.8,30.3,-18.3C32.7,-11.9,34.5,-5.9,32.6,-1.1C30.6,3.7,24.9,7.4,22,12.8C19.1,18.3,18.9,25.4,15.7,27.9C12.5,30.3,6.3,28,0.4,27.3C-5.4,26.6,-10.9,27.4,-16.2,26.2C-21.6,25,-26.9,21.8,-28,17.1C-29.1,12.4,-26,6.2,-26,0C-26,-6.2,-29.1,-12.4,-27.2,-15.8C-25.4,-19.1,-18.5,-19.6,-13.1,-20.5C-7.8,-21.4,-3.9,-22.7,1.8,-25.7C7.4,-28.8,14.9,-33.8,20,-32.7Z" width="100%" height="100%" transform="translate(50 50)" stroke-width="0" style="transition: 0.3s;" stroke="url(#sw-gradient)"></path>
              </svg>