<!--?xml version="1.0" standalone="no"?-->
              <svg id="sw-js-blob-svg" viewBox="0 0 100 100" xmlns="http://www.w3.org/2000/svg" version="1.1">
                    <defs> 
                        <linearGradient id="sw-gradient" x1="0" x2="1" y1="1" y2="0">
                            <stop id="stop1" stop-color="rgba(153.37, 153.37, 153.37, 0.76)" offset="0%"></stop>
                            <stop id="stop2" stop-color="rgba(255, 255, 255, 0.69)" offset="100%"></stop>
                        </linearGradient>
                    </defs>
                <path fill="url(#sw-gradient)" d="M16.5,-21.5C22.6,-18.4,29.4,-15.1,33.5,-9.2C37.7,-3.4,39.3,4.9,37,12.1C34.7,19.2,28.7,25.2,21.9,26.5C15.1,27.8,7.6,24.3,-0.7,25.3C-8.9,26.2,-17.9,31.5,-22.9,29.7C-28,27.9,-29.2,18.9,-27.5,11.8C-25.8,4.8,-21.2,-0.3,-20.4,-7.8C-19.5,-15.2,-22.4,-25,-19.6,-29.2C-16.9,-33.3,-8.4,-31.9,-1.6,-29.7C5.2,-27.5,10.5,-24.6,16.5,-21.5Z" width="100%" height="100%" transform="translate(50 50)" stroke-width="0" style="transition: 0.3s;" stroke="url(#sw-gradient)"></path>
              </svg>