<!--?xml version="1.0" standalone="no"?-->
              <svg id="sw-js-blob-svg" viewBox="0 0 100 100" xmlns="http://www.w3.org/2000/svg" version="1.1">
                    <defs> 
                        <linearGradient id="sw-gradient" x1="0" x2="1" y1="1" y2="0">
                            <stop id="stop1" stop-color="rgba(12, 135, 242, 1)" offset="0%"></stop>
                            <stop id="stop2" stop-color="rgba(255, 255, 255, 0.71)" offset="100%"></stop>
                        </linearGradient>
                    </defs>
                <path fill="url(#sw-gradient)" d="M18.9,-28.2C22.6,-23.2,22.7,-15.3,24.5,-8.3C26.3,-1.3,29.9,4.8,30.9,12.6C31.9,20.4,30.3,30,24.7,34.5C19.2,39.1,9.6,38.7,2.4,35.3C-4.7,32,-9.5,25.8,-14.7,21.1C-20,16.4,-25.8,13.3,-30.7,7.7C-35.7,2.1,-39.8,-6.1,-37.8,-12.3C-35.8,-18.5,-27.7,-22.7,-20.4,-26.6C-13.1,-30.4,-6.5,-33.9,0.5,-34.6C7.5,-35.3,15.1,-33.2,18.9,-28.2Z" width="100%" height="100%" transform="translate(50 50)" stroke-width="0" style="transition: 0.3s;" stroke="url(#sw-gradient)"></path>
              </svg>