<!--?xml version="1.0" standalone="no"?-->
              <svg id="sw-js-blob-svg" viewBox="0 0 100 100" xmlns="http://www.w3.org/2000/svg" version="1.1">
                    <defs> 
                        <linearGradient id="sw-gradient" x1="0" x2="1" y1="1" y2="0">
                            <stop id="stop1" stop-color="rgba(55, 179.017, 248, 1)" offset="0%"></stop>
                            <stop id="stop2" stop-color="rgba(34, 162, 242, 0.32)" offset="100%"></stop>
                        </linearGradient>
                    </defs>
                <path fill="url(#sw-gradient)" d="M10.1,-16C13.7,-11.4,17.4,-9.1,21.6,-4.9C25.9,-0.7,30.7,5.4,29,9C27.2,12.7,19.1,13.8,13.2,15.8C7.3,17.8,3.6,20.6,-0.1,20.8C-3.9,21,-7.8,18.5,-14.6,16.8C-21.5,15.1,-31.3,14.3,-32.3,10.6C-33.4,7,-25.6,0.6,-22.3,-6.5C-18.9,-13.6,-20,-21.3,-17.1,-26.1C-14.1,-30.8,-7,-32.5,-1.9,-30C3.3,-27.4,6.6,-20.6,10.1,-16Z" width="100%" height="100%" transform="translate(50 50)" stroke-width="0" style="transition: 0.3s;" stroke="url(#sw-gradient)"></path>
              </svg>